# File created by Blade
# Date/Time:  Wed Jan 21 14:55:15 2015
# Frame Rate: 120.000 fps
#------------------------------------------------------
:FULLY-SPECIFIED
:DEGREES
344
root 19.366757 18.021488 -19.185443 -105.951909 78.999830 -124.031913
Spine 9.962530 -5.597088 13.637600
Head 19.339275 4.184848 -8.452325
LeftShoulder -13.254286 -25.190989 -4.070815
LeftArm -18.099667 0.629682 -58.500293
LeftForeArm 5.439787 0.000000 6.248609
LeftHand -3.200375 -0.000000 3.681502
LeftHandThumb1 -26.253704 0.000000 33.147579
RightShoulder -5.764402 -12.841581 -0.167722
RightArm 13.068757 5.605672 61.334055
RightForeArm -24.666311 -0.000000 19.469258
RightHand -0.879273 -0.000000 0.687455
RightHandThumb1 -24.326973 -0.000000 -32.862282
LeftUpLeg 9.974994 13.884869 11.310995
LeftLeg 72.506125 -0.000000 -0.000000
LeftFoot -22.844567 20.847072 -13.824563
LeftToeBase -59.761033 -0.000000 0.000000
RightUpLeg -103.029682 16.101925 12.066744
RightLeg 107.133095 -0.000000 -0.000000
RightFoot -41.390959 -28.625588 14.694302
RightToeBase 23.158659 -0.000000 -0.000000
345
root 19.356412 17.962448 -19.193519 -106.603314 79.042191 -124.478748
Spine 9.682106 -5.669669 13.565111
Head 19.431942 4.153676 -8.323831
LeftShoulder -13.352989 -25.068039 -3.868752
LeftArm -18.013225 0.566562 -57.806280
LeftForeArm 5.417362 -0.000000 6.216334
LeftHand -3.306934 0.000000 3.598593
LeftHandThumb1 -26.253704 0.000000 33.147579
RightShoulder -5.863869 -12.907402 -0.168192
RightArm 13.003952 6.186747 60.957727
RightForeArm -24.812312 0.000000 19.489316
RightHand -0.910473 0.000000 0.751065
RightHandThumb1 -24.326973 -0.000000 -32.862282
LeftUpLeg 10.048892 13.799288 11.310094
LeftLeg 72.849274 -0.000000 -0.000000
LeftFoot -22.479594 20.786362 -13.770819
LeftToeBase -60.697878 -0.000000 0.000000
RightUpLeg -103.076816 15.975472 12.064220
RightLeg 107.369030 -0.000000 -0.000000
RightFoot -41.347942 -28.573657 14.766429
RightToeBase 23.082380 -0.000000 -0.000000
346
root 19.343707 17.909570 -19.201538 -107.323533 79.047157 -124.986913
Spine 9.431107 -5.812761 13.549231
Head 19.464446 4.136298 -8.271346
LeftShoulder -13.504712 -25.018847 -3.698690
LeftArm -17.911589 0.655437 -57.099199
LeftForeArm 5.276401 -0.000000 6.151342
LeftHand -3.297227 -0.000000 3.548159
LeftHandThumb1 -26.253704 0.000000 33.147579
RightShoulder -5.910752 -12.925169 -0.249374
RightArm 12.912444 6.669881 60.579245
RightForeArm -24.922848 -0.000000 19.526622
RightHand -1.006034 -0.000000 0.810685
RightHandThumb1 -24.326973 -0.000000 -32.862282
LeftUpLeg 10.101240 13.701277 11.343342
LeftLeg 73.232258 -0.000000 -0.000000
LeftFoot -22.339927 20.787798 -13.723571
LeftToeBase -61.011043 -0.000000 0.000000
RightUpLeg -103.073592 15.850992 12.099820
RightLeg 107.573122 -0.000000 -0.000000
RightFoot -41.304020 -28.452240 14.900412
RightToeBase 22.610552 -0.000000 -0.000000
347
root 19.333195 17.857236 -19.212560 -107.702974 79.095133 -125.127889
Spine 9.217622 -5.853626 13.508081
Head 19.512411 4.101728 -8.201394
LeftShoulder -13.644677 -24.935323 -3.530039
LeftArm -17.754227 0.626680 -56.366417
LeftForeArm 5.375847 -0.000000 6.080997
LeftHand -3.311628 -0.000000 3.271367
LeftHandThumb1 -26.253704 0.000000 33.147579
RightShoulder -6.013862 -12.961214 -0.325247
RightArm 12.843912 7.157052 60.190453
RightForeArm -25.080809 -0.000000 19.576726
RightHand -1.105761 -0.000000 0.855235
RightHandThumb1 -24.326973 -0.000000 -32.862282
LeftUpLeg 10.207841 13.665408 11.348868
LeftLeg 73.562190 -0.000000 -0.000000
LeftFoot -22.147287 20.799020 -13.736325
LeftToeBase -61.909415 -0.000000 0.000000
RightUpLeg -103.034647 15.786978 12.086926
RightLeg 107.749898 -0.000000 -0.000000
RightFoot -41.285964 -28.613616 14.711201
RightToeBase 22.974632 -0.000000 -0.000000
348
root 19.335012 17.792608 -19.236015 -109.147959 79.280989 -125.951433
Spine 9.526786 -6.004647 13.195186
Head 19.272490 3.987214 -8.059499
LeftShoulder -13.643915 -25.003082 -3.251883
LeftArm -17.705266 0.700332 -55.746300
LeftForeArm 5.246657 -0.000000 6.108269
LeftHand -3.368889 -0.000000 3.195564
LeftHandThumb1 -26.253704 0.000000 33.147579
RightShoulder -6.113738 -12.814181 -0.434979
RightArm 12.706839 7.634245 59.882455
RightForeArm -25.261521 0.000000 19.619681
RightHand -1.162245 -0.000000 0.838350
RightHandThumb1 -24.326973 -0.000000 -32.862282
LeftUpLeg 10.740832 13.471184 11.223357
LeftLeg 73.834302 -0.000000 -0.000000
LeftFoot -21.964332 20.877982 -13.672000
LeftToeBase -61.875708 -0.000000 0.000000
RightUpLeg -102.688214 15.548057 12.021769
RightLeg 108.077815 -0.000000 -0.000000
RightFoot -41.302553 -28.571038 14.727379
RightToeBase 23.013119 -0.000000 -0.000000
349
root 19.313595 17.741251 -19.230300 -110.377406 79.253088 -126.939323
Spine 9.364580 -6.190452 13.082494
Head 19.173219 3.891608 -7.878185
LeftShoulder -13.748280 -25.073553 -2.927230
LeftArm -17.649648 0.667772 -55.040792
LeftForeArm 5.335103 0.000000 6.095224
LeftHand -3.273409 -0.000000 3.120461
LeftHandThumb1 -26.253704 0.000000 33.147579
RightShoulder -6.205367 -12.786618 -0.494972
RightArm 12.607312 8.134795 59.513221
RightForeArm -25.414959 -0.000000 19.665085
RightHand -1.175802 -0.000000 0.955471
RightHandThumb1 -24.326973 -0.000000 -32.862282
LeftUpLeg 10.740893 13.279633 11.288850
LeftLeg 74.309676 -0.000000 -0.000000
LeftFoot -21.730935 20.880403 -13.599153
LeftToeBase -62.222240 -0.000000 0.000000
RightUpLeg -102.675363 15.368455 12.006430
RightLeg 108.250472 -0.000000 -0.000000
RightFoot -41.245824 -28.646535 14.672151
RightToeBase 22.912895 -0.000000 -0.000000
350
root 19.298549 17.694682 -19.241973 -110.511969 79.339320 -126.914191
Spine 9.062605 -6.181380 12.986968
Head 19.233673 3.886700 -7.777509
LeftShoulder -13.858152 -25.001237 -2.724334
LeftArm -17.548651 0.670367 -54.304545
LeftForeArm 5.490249 -0.000000 6.161158
LeftHand -3.412045 0.000000 3.058272
LeftHandThumb1 -26.253704 0.000000 33.147579
RightShoulder -6.277430 -12.796073 -0.594838
RightArm 12.478935 8.598429 59.079836
RightForeArm -25.631700 -0.000000 19.691211
RightHand -1.283435 0.000000 0.943641
RightHandThumb1 -24.326973 -0.000000 -32.862282
LeftUpLeg 10.760523 13.296959 11.230134
LeftLeg 74.643609 -0.000000 -0.000000
LeftFoot -21.489289 20.940324 -13.546138
LeftToeBase -62.806001 -0.000000 0.000000
RightUpLeg -102.699867 15.357672 11.969938
RightLeg 108.389907 -0.000000 -0.000000
RightFoot -41.175201 -28.610705 14.698327
RightToeBase 22.656493 -0.000000 -0.000000
351
root 19.286842 17.652617 -19.255961 -110.407176 79.517399 -126.699047
Spine 8.700672 -6.038945 12.813690
Head 19.325571 3.730818 -7.724407
LeftShoulder -13.947929 -24.925981 -2.595273
LeftArm -17.352667 0.726772 -53.488355
LeftForeArm 5.520755 -0.000000 6.121312
LeftHand -3.463469 -0.000000 2.934210
LeftHandThumb1 -26.253704 0.000000 33.147579
RightShoulder -6.459220 -12.912846 -0.597890
RightArm 12.473311 8.991329 58.573912
RightForeArm -25.853664 0.000000 19.631693
RightHand -1.395867 -0.000000 0.833949
RightHandThumb1 -24.326973 -0.000000 -32.862282
LeftUpLeg 10.765608 13.386637 11.087340
LeftLeg 74.909574 -0.000000 -0.000000
LeftFoot -21.196616 20.986578 -13.497783
LeftToeBase -63.206692 -0.000000 0.000000
RightUpLeg -102.760428 15.412820 11.840017
RightLeg 108.519861 -0.000000 -0.000000
RightFoot -41.124868 -28.743061 14.517697
RightToeBase 22.893097 -0.000000 -0.000000
352
root 19.274089 17.607090 -19.272704 -110.552009 79.690722 -126.639374
Spine 8.477614 -5.999823 12.607148
Head 19.312669 3.760347 -7.617375
LeftShoulder -14.017631 -24.919111 -2.394463
LeftArm -17.289017 0.844142 -52.734790
LeftForeArm 5.494480 -0.000000 6.219374
LeftHand -3.638256 0.000000 2.947299
LeftHandThumb1 -26.253704 0.000000 33.147579
RightShoulder -6.525739 -12.936333 -0.683597
RightArm 12.387582 9.406853 58.090990
RightForeArm -26.023134 -0.000000 19.563215
RightHand -1.404787 0.000000 0.873301
RightHandThumb1 -24.326973 -0.000000 -32.862282
LeftUpLeg 10.856408 13.393546 10.919191
LeftLeg 75.189430 -0.000000 -0.000000
LeftFoot -20.950962 21.073005 -13.441040
LeftToeBase -63.603629 -0.000000 0.000000
RightUpLeg -102.731309 15.389076 11.745759
RightLeg 108.663510 -0.000000 -0.000000
RightFoot -41.042320 -28.773180 14.360361
RightToeBase 22.884385 -0.000000 -0.000000
353
root 19.262332 17.564335 -19.289374 -111.102447 79.807113 -126.996262
Spine 8.213336 -6.036853 12.439850
Head 19.378648 3.728232 -7.504069
LeftShoulder -14.127002 -24.872196 -2.159682
LeftArm -17.074894 0.598360 -51.914420
LeftForeArm 5.851008 0.000000 6.067974
LeftHand -3.394921 -0.000000 2.686914
LeftHandThumb1 -26.253704 0.000000 33.147579
RightShoulder -6.532306 -12.930105 -0.777898
RightArm 12.186267 9.894256 57.575747
RightForeArm -26.204394 0.000000 19.525234
RightHand -1.440582 0.000000 0.890996
RightHandThumb1 -24.326973 -0.000000 -32.862282
LeftUpLeg 10.906494 13.304898 10.755685
LeftLeg 75.499640 -0.000000 -0.000000
LeftFoot -20.611320 21.120109 -13.453036
LeftToeBase -62.979689 -0.000000 0.000000
RightUpLeg -102.737195 15.307420 11.653644
RightLeg 108.835147 -0.000000 -0.000000
RightFoot -40.991422 -28.758177 14.374996
RightToeBase 22.800718 -0.000000 -0.000000
